<svg xmlns="http://www.w3.org/2000/svg" width="80" height="64" viewBox="0 0 80 64" fill="none">
  <path d="M43.5629 0.000573509C41.3121 0 39.0613 0 36.811 0.000573509C36.73 0.000573509 36.6484 0.0108967 36.5229 0.0194993V18.0644C36.434 18.0644 36.4126 18.0707 36.3974 18.0632C36.3474 18.0386 36.299 18.0099 36.2517 17.9801C34.7352 17.0435 33.1158 16.3559 31.3889 15.9481C29.2078 15.4331 27.0105 15.4108 24.8086 15.7996C23.3895 16.0502 22.0334 16.5113 20.7336 17.1399C18.6555 18.1447 16.8903 19.5698 15.3857 21.3328C15.0362 21.7423 14.72 22.1839 14.4156 22.6301C14.1111 23.0763 13.8523 23.5546 13.5524 24.0036C13.2705 24.4257 13.1298 24.9149 12.907 25.3646C12.6217 25.9404 12.4152 26.5626 12.2267 27.1815C11.3747 29.9756 11.2914 32.8082 11.889 35.6625C12.3156 37.699 13.1253 39.5761 14.2676 41.2955C15.1189 42.5773 16.1318 43.7117 17.3022 44.7153C18.0911 45.3921 18.9402 45.9581 19.8141 46.4944C20.8444 47.1258 21.9552 47.5921 23.1138 47.9023C24.0518 48.1535 25.009 48.3577 25.97 48.485C27.7983 48.727 29.622 48.6072 31.4131 48.1633C32.1367 47.9843 32.835 47.7005 33.5474 47.4711C34.6368 47.1201 35.6136 46.542 36.5668 45.918C36.694 45.8348 36.784 45.6937 36.9101 45.6077C37.0372 45.5211 37.2032 45.4913 37.3259 45.3995C38.2853 44.6798 39.1868 43.8832 39.9318 42.9375C40.6081 42.0789 41.2513 41.1831 41.8157 40.2454C42.2574 39.5107 42.5827 38.6981 42.909 37.8992C43.1335 37.3498 43.2714 36.7642 43.4588 36.1603C43.3322 36.1402 43.2348 36.1116 43.1375 36.1116C40.737 36.1087 38.336 36.1116 35.9355 36.1058C35.747 36.1058 35.6502 36.1867 35.563 36.3438C35.3981 36.6426 35.2253 36.9386 35.0346 37.2202C34.3374 38.2467 33.4607 39.0835 32.4259 39.7499C31.2223 40.5247 29.9073 40.9898 28.4938 41.0833C27.7336 41.1338 26.9593 41.0632 26.1991 40.9795C25.1817 40.8671 24.2307 40.4748 23.3546 39.9684C22.7717 39.6312 22.1983 39.2441 21.7093 38.7405C20.9001 37.9072 20.1934 37.0154 19.6976 35.9475C18.9672 34.375 18.7236 32.7307 18.9121 31.0113C19.1501 28.8383 20.069 27.0008 21.6029 25.4919C22.4594 24.6494 23.4565 23.9973 24.5836 23.5884C26.6622 22.8337 28.7487 22.774 30.8329 23.5798C32.8946 24.3764 34.4618 25.7574 35.5281 27.724C35.6232 27.8989 35.7374 27.9666 35.9287 27.966C38.498 27.9614 41.0679 27.9591 43.6372 27.966C43.9011 27.9666 43.9663 27.8679 43.9663 27.6139C43.9607 18.5433 43.9613 9.47265 43.9601 0.40203C43.9601 0.0120437 43.9461 0 43.5634 0L43.5629 0.000573509Z" fill="#F6821F"/>
  <path d="M79.0727 26.5443C78.5319 24.9121 77.7363 23.4164 76.6936 22.0606C76.4882 21.7933 76.2434 21.5576 76.0273 21.2978C75.7927 21.0162 75.5946 20.6985 75.338 20.441C74.5193 19.6203 73.6347 18.8822 72.6787 18.2244C71.1386 17.1651 69.451 16.462 67.6656 15.9923C65.8796 15.522 64.0615 15.4222 62.226 15.5891C60.2425 15.7698 58.372 16.3473 56.5843 17.2236C56.483 17.2735 56.4127 17.3876 56.3125 17.4416C56.2101 17.496 56.0745 17.4892 55.9772 17.5488C55.4567 17.87 54.9261 18.1791 54.4303 18.5375C52.8097 19.7086 51.4294 21.1269 50.3429 22.8257C49.9248 23.4795 49.5151 24.1487 49.1966 24.8553C48.7611 25.8211 48.4162 26.8293 48.0088 27.8794C48.2215 27.9161 48.3295 27.9511 48.4381 27.9511C50.8296 27.9545 53.2211 27.9534 55.6125 27.9574C55.7949 27.9574 55.9046 27.8852 55.9912 27.7228C56.1297 27.463 56.2844 27.2119 56.442 26.9635C56.9512 26.1629 57.6062 25.4867 58.3158 24.8823C58.7614 24.5026 59.3016 24.2296 59.821 23.9509C61.0887 23.2718 62.4539 22.9507 63.8803 22.9834C65.9347 23.031 67.7922 23.6796 69.3931 25.021C70.3367 25.8119 71.0981 26.7542 71.6574 27.8651C72.0912 28.7265 72.4092 29.6229 72.551 30.5847C72.7091 31.6611 72.7018 32.7313 72.4885 33.7986C72.1368 35.5593 71.3659 37.1026 70.1055 38.3603C69.6013 38.8633 69.038 39.3226 68.4455 39.7126C67.1277 40.5798 65.6646 41.0162 64.0913 41.0644C62.5023 41.1131 61.0105 40.7581 59.5982 40.0143C58.596 39.4861 57.7801 38.7159 56.9934 37.9227C56.6322 37.5585 56.3953 37.059 56.1364 36.6008C55.935 36.2446 55.6688 36.1007 55.2693 36.1024C52.8908 36.1127 50.5117 36.1075 48.0718 36.1075C48.2586 36.7195 48.3807 37.3268 48.6249 37.8774C49.0779 38.8977 49.5765 39.8996 50.1071 40.8809C50.3851 41.3953 50.7311 41.8851 51.116 42.3227C51.8132 43.1147 52.5441 43.8797 53.2987 44.6156C53.6656 44.9728 54.1101 45.2504 54.5333 45.5429C55.0875 45.9254 55.6334 46.3315 56.2231 46.6498C58.2707 47.7561 60.4602 48.3858 62.7746 48.524C64.9871 48.6559 67.1468 48.36 69.2389 47.5938C70.3547 47.1849 71.4284 46.6859 72.4018 45.9925C73.1609 45.4523 73.9099 44.8937 74.6301 44.3007C75.0482 43.9566 75.3881 43.5161 75.7848 43.1434C76.1725 42.7792 76.4223 42.3072 76.765 41.9063C77.128 41.4813 77.4161 40.9841 77.7053 40.4995C78.3496 39.4196 78.8442 38.2708 79.224 37.0647C79.6449 35.7302 79.8908 34.3669 79.973 32.9722C80.076 31.2253 79.8801 29.5053 79.4632 27.8106" fill="#F6821F"/>
  <path d="M7.14209 16.0043C5.7449 16.0043 4.34772 16.0043 2.95053 16.0043C2.10648 16.0043 1.26243 16.0043 0.418943 16.0043C0.0250527 16.0043 -0.0120856 16.0439 0.00254462 16.4522C0.00929703 16.6524 0.0295543 16.8526 0.0295543 17.0533C0.0306797 27.2313 0.0306796 37.41 0.0306796 47.588V48.0159C0.192737 48.0348 0.337914 48.0658 0.483091 48.0664C2.66806 48.0692 4.85246 48.0692 7.03743 48.0681C7.5146 48.0681 7.51572 48.0658 7.51572 47.5863C7.51628 37.1404 7.51685 26.6945 7.51685 16.2487C7.51685 16.1764 7.50334 16.1041 7.49378 16.0055C7.36436 16.0055 7.2535 16.0055 7.14265 16.0055L7.14209 16.0043Z" fill="#F6821F"/>
  <path d="M67.7168 32.1882C67.7579 29.8207 66.0703 28.048 63.7807 28.0228C61.6312 27.9993 59.8666 29.7754 59.8519 31.9995C59.8373 34.172 61.5412 36.006 63.7025 36.0479C65.8852 36.0903 67.6797 34.3159 67.7168 32.1882Z" fill="#F6821F"/>
  <path d="M16.3403 59.7269C16.3757 58.9946 16.3723 58.2547 16.3104 57.5247C16.2423 56.7212 15.8175 56.3014 15.0387 56.1351C14.8744 56.1001 14.7051 56.0702 14.5379 56.0685C13.076 56.053 11.6147 56.0444 10.1528 56.0353C10.1264 56.0353 10.0993 56.049 10.0594 56.0605V63.9743H11.514V61.1487C12.2551 61.1487 12.9567 61.1573 13.6584 61.1435C13.861 61.1395 13.9527 61.2181 14.0377 61.3941C14.4203 62.1919 14.8137 62.9845 15.2149 63.7725C15.2616 63.8648 15.3769 63.9778 15.4647 63.9818C15.9222 64.003 16.3813 63.9916 16.908 63.9916C16.3577 62.9759 15.8366 62.0141 15.3049 61.0323C15.9526 60.8069 16.3104 60.363 16.3408 59.7269H16.3403ZM14.8969 59.478C14.8941 59.8434 14.7681 60.0085 14.4186 60.0143C13.4643 60.0298 12.51 60.0194 11.5207 60.0194V57.1754C11.6068 57.1662 11.6788 57.1525 11.7503 57.1525C12.5842 57.1507 13.4182 57.1484 14.2526 57.1525C14.7703 57.1548 14.8981 57.2901 14.8986 57.816C14.8986 58.37 14.902 58.924 14.8969 59.478Z" fill="#211F20"/>
  <path d="M32.8246 56.0278C32.559 56.0106 32.4706 56.0829 32.4757 56.3685C32.4937 57.3234 32.483 58.2788 32.4819 59.2343C32.4819 59.3352 32.4712 59.4362 32.465 59.5417H28.0923V56.033C27.6866 56.033 27.3129 56.0496 26.941 56.0272C26.6889 56.0123 26.6276 56.0955 26.6287 56.3473C26.6382 58.7359 26.6343 61.124 26.6343 63.5127V63.9663H28.1058V60.6967H32.4847V63.9657H33.9325V56.0335C33.5516 56.0335 33.187 56.0513 32.8246 56.0278Z" fill="#211F20"/>
  <path d="M5.5336 56.3283C5.45144 56.1121 5.35072 56.0135 5.10988 56.0278C4.72668 56.0507 4.34011 56.0536 3.95747 56.0261C3.68513 56.0066 3.56921 56.1115 3.47411 56.3639C2.80675 58.1383 2.12251 59.9065 1.44501 61.6769C1.15635 62.4316 0.869372 63.1869 0.562701 63.991C1.01849 63.991 1.42026 63.9835 1.82202 63.995C1.97958 63.9996 2.05723 63.9445 2.11013 63.7954C2.27218 63.3372 2.43818 62.8801 2.62387 62.4322C2.65932 62.3467 2.79156 62.2492 2.88046 62.2481C3.9586 62.2355 5.03673 62.2429 6.11543 62.236C6.28311 62.2349 6.36639 62.2945 6.4221 62.4546C6.57909 62.9042 6.74565 63.3509 6.92234 63.7931C6.95442 63.8728 7.04839 63.9795 7.11704 63.9824C7.55482 63.9996 7.99372 63.991 8.46864 63.991C8.39268 63.7885 8.33078 63.6205 8.26663 63.4536C7.3545 61.0793 6.43954 58.7055 5.5336 56.3289V56.3283ZM3.11173 61.0988C3.57765 59.8525 4.03231 58.6361 4.51736 57.3389C5.00241 58.6356 5.45763 59.8514 5.92411 61.0988H3.11173Z" fill="#211F20"/>
  <path d="M79.3864 61.2835C79.3346 60.2832 78.84 59.751 77.862 59.622C76.7186 59.4706 75.5757 59.3163 74.4318 59.1729C74.2675 59.1523 74.205 59.0967 74.2095 58.9252C74.2196 58.5432 74.2123 58.1607 74.2123 57.7787C74.2123 57.2264 74.2827 57.153 74.829 57.1519C76.1041 57.1502 77.3792 57.1519 78.6548 57.1519H78.9688V56.0347C78.7775 56.0347 78.6025 56.033 78.4269 56.0347C77.2087 56.0462 75.9893 56.0393 74.7722 56.08C74.2292 56.0984 73.7301 56.3128 73.3266 56.7057C72.8219 57.1966 72.7386 57.8275 72.7476 58.4968C72.7617 59.5612 73.3463 60.2437 74.3749 60.371C75.4728 60.5069 76.57 60.6491 77.6684 60.7782C77.8609 60.8006 77.9481 60.855 77.9402 61.073C77.9239 61.5312 77.9301 61.99 77.9368 62.4488C77.9408 62.7098 77.8192 62.8405 77.5733 62.8606C77.4332 62.8721 77.2925 62.8767 77.1519 62.8767C75.8487 62.8778 74.5454 62.8778 73.2422 62.8784C73.1426 62.8784 73.043 62.887 72.9299 62.8916V63.9571C72.9811 63.9721 73.0076 63.987 73.0335 63.987C74.4397 63.9824 75.847 64.007 77.252 63.9589C78.0736 63.9308 78.791 63.6073 79.1917 62.8004C79.4297 62.3209 79.4134 61.799 79.3869 61.2829L79.3864 61.2835Z" fill="#211F20"/>
  <path d="M24.4488 62.8784C23.2958 62.8784 22.1434 62.8807 20.9904 62.8761C20.453 62.8738 20.3039 62.7212 20.3028 62.1741C20.3 60.7317 20.3005 59.2894 20.3039 57.847C20.305 57.3073 20.4598 57.1553 20.9977 57.1542C22.1507 57.1519 23.3031 57.153 24.4561 57.1525C24.5641 57.1525 24.6722 57.1525 24.778 57.1525V56.0702C24.7408 56.0548 24.7234 56.0416 24.7065 56.0421C23.3853 56.0507 22.0624 56.0181 20.7445 56.0829C19.6242 56.1379 18.8758 56.8978 18.855 57.9376C18.8268 59.3318 18.8302 60.7271 18.8578 62.1213C18.873 62.899 19.2714 63.4743 19.9894 63.7455C20.3681 63.8883 20.7878 63.9715 21.1919 63.9824C22.3156 64.0139 23.441 63.9939 24.5658 63.9921C24.6367 63.9921 24.7864 63.9904 24.7864 63.9904V62.8795C24.653 62.8795 24.5512 62.8795 24.4493 62.8795L24.4488 62.8784Z" fill="#211F20"/>
  <path d="M59.2473 56.0393C59.0053 56.041 58.76 56.0754 58.5237 56.1293C57.566 56.3478 56.9723 57.0114 56.9543 57.9605C56.9278 59.3358 56.9267 60.7122 56.9565 62.0875C56.974 62.8973 57.3848 63.496 58.1438 63.7639C58.5349 63.9015 58.9648 63.9709 59.379 63.9824C60.4655 64.0122 61.5532 63.9933 62.6409 63.9921C62.7208 63.9921 62.8773 63.9898 62.8773 63.9898V62.8784C62.7248 62.8784 62.5942 62.8784 62.4643 62.8784C61.349 62.8784 60.2332 62.8795 59.1179 62.8772C58.5602 62.8761 58.4117 62.7298 58.41 62.1672C58.4066 60.734 58.4072 59.3008 58.41 57.8676C58.4111 57.2987 58.5574 57.153 59.1111 57.1525C60.2545 57.1513 61.3985 57.1525 62.5419 57.1525C62.6511 57.1525 62.7602 57.1525 62.8835 57.1525V56.0559C62.8047 56.0479 62.7411 56.0358 62.6781 56.0358C61.5347 56.0347 60.3907 56.0301 59.2473 56.0399V56.0393Z" fill="#211F20"/>
  <path d="M36.4366 63.9726H37.8574V56.0542H36.4366V63.9726Z" fill="#211F20"/>
  <path d="M39.8521 57.1043C39.9714 57.1043 40.0632 57.1043 40.1549 57.1043C40.8391 57.1043 41.5239 57.1043 42.2082 57.1043C42.2447 57.1043 42.2763 57.1043 42.3055 57.1043H42.5784V57.3824C42.5784 57.41 42.5784 57.4386 42.5784 57.4719C42.5784 59.5457 42.5784 61.6195 42.5795 63.6933C42.5795 63.7851 42.588 63.8763 42.5925 63.972H44.0414V57.0985H46.7469V56.0582H39.851V57.1031L39.8521 57.1043Z" fill="#211F20"/>
  <path d="M64.4084 57.0974H67.129V57.4306C67.129 57.4352 67.129 57.4398 67.129 57.445C67.1178 59.5079 67.1234 61.5708 67.1234 63.6337C67.1234 63.7444 67.1234 63.8551 67.1234 63.9732H68.5954V57.1003H71.2981V56.0582H64.4084V57.0974Z" fill="#211F20"/>
  <path d="M48.7473 63.9738H54.5842V62.8778C54.4688 62.8778 54.3766 62.8778 54.2843 62.8778C53.0463 62.8778 51.809 62.8778 50.571 62.8778C50.3227 62.8778 50.1983 62.7556 50.198 62.5113C50.198 62.0336 50.198 61.5559 50.198 61.0781C50.198 60.8711 50.198 60.6641 50.198 60.4301H54.2404V59.3089H53.7902V59.31C52.6828 59.3192 51.5754 59.3111 50.4686 59.3192C50.2649 59.3209 50.1873 59.2693 50.194 59.0473C50.2086 58.522 50.2103 57.9961 50.1923 57.4708C50.1839 57.2219 50.2514 57.1433 50.5041 57.1461C51.7606 57.1593 53.0171 57.1525 54.2736 57.1525C54.3738 57.1525 54.4739 57.1525 54.591 57.1525V56.0588H48.7479V63.9749L48.7473 63.9738Z" fill="#211F20"/>
</svg>